<svg width="100" height="100" viewBox="0 0 24 24" fill="none" xmlns="http://www.w3.org/2000/svg">
  <defs>
    <linearGradient id="pinGradient" x1="0%" y1="0%" x2="100%" y2="100%">
      <stop offset="0%" stop-color="#818cf8" />
      <stop offset="100%" stop-color="#c084fc" />
    </linearGradient>
  </defs>
  <path d="M12 2C8.13 2 5 5.13 5 9c0 5.25 7 13 7 13s7-7.75 7-13c0-3.87-3.13-7-7-7z" fill="url(#pinGradient)"/>
  <path d="M17.5 13.5v-1.25l-5-3.125V6.1875c0-.51875-.41875-.9375-.9375-.9375s-.9375.41875-.9375.9375v2.9375l-5 3.125v1.25l5-1.5625v2.8125l-1.25.9375v.9375l2.1875-.625 2.1875.625v-.9375l-1.25-.9375V11.9375l5 1.5625z" fill="white"/>
</svg>
